<svg xmlns="http://www.w3.org/2000/svg" width="50" height="39" fill="none"><g clip-path="url(#a)"><path fill="#1E2878" d="m27.456 38.697 10.327-17.21c-2.854-.17-5.205-1.308-7.053-3.417-1.93-2.025-2.896-4.472-2.896-7.34 0-3.037 1.05-5.568 3.148-7.593C33.082 1.112 35.684.1 38.791.1s5.751 1.012 7.934 3.037S50 7.904 50 11.363c0 1.856-.462 3.923-1.385 6.2-.924 2.278-2.393 4.978-4.408 8.1-2.1 3.205-4.786 7.086-8.06 11.642l-.883 1.392h-7.808ZM0 38.697l10.453-17.21c-2.938-.17-5.331-1.308-7.178-3.417C1.427 16.045.504 13.598.504 10.73c0-3.037 1.05-5.568 3.148-7.593C5.668 1.112 8.228.1 11.335.1c3.19 0 5.877 1.012 8.06 3.037 2.1 2.025 3.149 4.767 3.149 8.226 0 1.856-.462 3.923-1.385 6.2-.924 2.278-2.393 4.978-4.408 8.1-2.016 3.205-4.66 7.086-7.935 11.642L7.81 38.697H0Z" opacity=".2"/></g><defs><clipPath id="a"><path fill="#fff" d="M0 .1h50v38.596H0z"/></clipPath></defs></svg>